# xmcd
#
# Track frame offsets:
#	150
#	17337
#	33082
#	45968
#	67404
#	83307
#	101307
#	119593
#	132342
#
# Disc length: 1981 seconds
#
# Revision: 1
# Processed by: cddbd v1.5.2PL0 Copyright (c) Steve Scherf et al.
# Submitted via: audiograbber 1.83.01
#
DISCID=6407bb09
DTITLE=Hank Williams, Jr. - Hank Williams, Jr. and Friends
DYEAR=1975
DGENRE=Country
TTITLE0=Losin' You
TTITLE1=On Susan's Floor
TTITLE2=I Really Did
TTITLE3=Can't You See
TTITLE4=Montana Songoor
TTITLE5=Clovis, New Mexico
TTITLE6=Brothers Of The Road
TTITLE7=Stoned At The Jukebox
TTITLE8=(The) Living Proof
EXTD=
EXTT0=
EXTT1=
EXTT2=
EXTT3=
EXTT4=
EXTT5=
EXTT6=
EXTT7=
EXTT8=
PLAYORDER=
